<?xml version="1.0" encoding="iso-8859-1"?>
<!-- Generator: Adobe Illustrator 19.0.0, SVG Export Plug-In . SVG Version: 6.00 Build 0)  -->
<svg version="1.1" id="Capa_1" xmlns="http://www.w3.org/2000/svg" xmlns:xlink="http://www.w3.org/1999/xlink" x="0px" y="0px"
	 viewBox="0 0 442.5 442.5" style="enable-background:new 0 0 442.5 442.5;" xml:space="preserve">
<g>
	<path style="fill:#FEDB41;" d="M442.25,200.8h-116.9c-2.8-13.3-7.9-26-15.2-37.5l82.7-83c28,34.1,45.1,75.7,49.4,119.6
		C442.25,200.2,442.25,200.5,442.25,200.8z"/>
	<path style="fill:#FEDB41;" d="M386.85,244.8h55.3c-1.5,15.5-4.8,30.8-9.6,45.6h-0.1L386.85,244.8z"/>
</g>
<path style="fill:#00EFD1;" d="M432.45,290.4h0.1c-4.4,13.7-10.2,26.9-17.2,39.4l-0.1-0.1l-85-84.9h56.6L432.45,290.4z"/>
<path style="fill:#FEDB41;" d="M415.15,329.7l0.1,0.1c-6.6,11.9-14.4,23.1-23,33.5l-0.2-0.2l-82.4-82.4c7.4-10.9,12.6-23.1,15.4-36
	h5.2L415.15,329.7z"/>
<path style="fill:#00EFD1;" d="M392.05,363.2l0.2,0.2c-8.6,10.3-18,19.8-28.3,28.4l-0.2-0.2l-82.4-82.4
	c11.1-7.6,20.7-17.2,28.2-28.4L392.05,363.2z"/>
<path style="fill:#FEDB41;" d="M363.85,391.5l0.2,0.2c-10.4,8.7-21.6,16.5-33.5,23.2l-0.2-0.3l-87.1-87.1h-0.2v-1.9
	c13.8-2.9,26.8-8.4,38.4-16.4L363.85,391.5z"/>
<path style="fill:#00ACEA;" d="M361.95,49.5l-82.4,82.7c-11.3-7.3-23.8-12.4-37-15.1c-0.3-0.1-0.7-0.1-1.1-0.1V0c0.4,0,0.7,0,1.1,0
	C286.35,4.3,327.95,21.5,361.95,49.5z"/>
<path style="fill:#00EFD1;" d="M330.35,414.6l0.2,0.3c-12.5,7.1-25.6,12.9-39.2,17.4l-0.1-0.2l-48.5-48.5l0.2-56.1h0.2L330.35,414.6
	z"/>
<path style="fill:#FEDB41;" d="M291.25,432.1l0.1,0.2c-15.7,5.2-31.9,8.6-48.3,10.2c-0.2,0-0.3,0-0.5,0l0.2-58.9L291.25,432.1z"/>
<path style="fill:#00EFD1;" d="M199.25,324.4c0.2,0-0.8,117.1-0.8,117.1c-104-10.4-188-93.8-198.2-198.9l117.2-0.2
	C126.05,283.5,158.15,315.7,199.25,324.4z"/>
<path style="fill:#FEDB41;" d="M197.45,0.5v116.9c-40,8.7-71.3,42.5-79.8,83.5H0.75C10.85,95.8,93.45,10.9,197.45,0.5z"/>
<g>
</g>
<g>
</g>
<g>
</g>
<g>
</g>
<g>
</g>
<g>
</g>
<g>
</g>
<g>
</g>
<g>
</g>
<g>
</g>
<g>
</g>
<g>
</g>
<g>
</g>
<g>
</g>
<g>
</g>
</svg>
