<svg height="481pt" viewBox="-20 0 480 481" width="481pt" xmlns="http://www.w3.org/2000/svg"><path d="m187.050781 407.058594-67.671875 2.082031c-11.335937.347656-22.335937-3.882813-30.515625-11.738281-8.183593-7.855469-12.859375-18.671875-12.972656-30.011719l-.839844-83.832031h-74.550781l73.910156-116.9375c0-91.832032 87.289063-166.621094 183.5-166.621094 76.460938 0 150.371094 46.820312 173.941406 111.890625 21.667969 44.390625-.632812 147.757813-7.210937 207.359375l-.890625 158.710938-236.671875 3.039062v-72.851562zm0 0" fill="#00acea"/><path d="m252.800781 106.691406c15.566407.015625 28.183594 12.632813 28.199219 28.199219 0 4.417969 3.582031 8 8 8s8-3.582031 8-8c-.027344-21.699219-15.78125-40.175781-37.199219-43.640625v-12.75c0-4.417969-3.582031-8-8-8s-8 3.582031-8 8v13.113281c-22.191406 4.605469-37.300781 25.253907-34.984375 47.800781 2.320313 22.546876 21.320313 39.683594 43.984375 39.675782 15.574219 0 28.199219 12.625 28.199219 28.199218 0 15.574219-12.625 28.199219-28.199219 28.199219s-28.199219-12.625-28.199219-28.199219c0-4.417968-3.582031-8-8-8-4.417968 0-8 3.582032-8 8 .027344 20.933594 14.710938 38.988282 35.199219 43.277344v14.933594c0 4.417969 3.582031 8 8 8s8-3.582031 8-8v-14.570312c22.75-3.65625 38.875-24.179688 37.046875-47.152344-1.832031-22.96875-21.003906-40.679688-44.046875-40.6875-15.574219 0-28.199219-12.625-28.199219-28.199219s12.625-28.199219 28.199219-28.199219zm0 0" fill="#fedb41"/></svg>