<svg height="486pt" viewBox="-29 0 486 486.04" width="486pt" xmlns="http://www.w3.org/2000/svg"><path d="m401.238281 431.191406c7.734375 0 15.109375 3.277344 20.296875 9.015625 5.1875 5.742188 7.703125 13.40625 6.921875 21.101563v24.722656l-116.109375.007812v-24.730468c-.777344-7.695313 1.742188-15.363282 6.929688-21.105469 5.1875-5.738281 12.5625-9.011719 20.300781-9.011719h7.492187l23.339844 20.96875 24.179688-20.96875zm0 0" fill="#00efd1"/><path d="m395.820312 389.371094v4.828125c0 14.109375-11.433593 25.542969-25.542968 25.539062h-1.597656c-14.105469 0-25.535157-11.433593-25.53125-25.539062v-4.828125c-.003907-14.105469 11.425781-25.539063 25.53125-25.542969h1.597656c14.109375 0 25.542968 11.433594 25.542968 25.542969zm0 0" fill="#00efd1"/><path d="m246.546875 75.308594c8.089844.003906 15.796875 3.425781 21.21875 9.429687 5.421875 6 8.050781 14.015625 7.234375 22.0625v53.640625c0 8.207032-3.320312 16.070313-9.203125 21.796875l-4.957031 4.820313c-5.53125 5.378906-8.8125 12.65625-9.179688 20.363281l-4.363281 91.488281h-65.828125l-4.359375-91.429687c-.371094-7.738281-3.679687-15.046875-9.25-20.429688l-4.960937-4.78125c-5.929688-5.734375-9.28125-13.628906-9.28125-21.878906v-53.589844c-.816407-8.046875 1.816406-16.066406 7.238281-22.066406s13.132812-9.425781 21.222656-9.425781h6.320313l8.601562 26.410156 6.660156-7.4375-7.601562 70.789062 18.25 18.25 18.25-18.261718-7.550782-70.367188 6.609376 7.027344 9.5-26.410156zm0 0" fill="#00acea"/><path d="m245.148438 431.191406c7.734374 0 15.105468 3.277344 20.292968 9.019532 5.183594 5.738281 7.699219 13.402343 6.917969 21.097656v24.722656l-116.101563.007812v-24.730468c-.777343-7.695313 1.734376-15.363282 6.921876-21.101563 5.1875-5.742187 12.5625-9.015625 20.296874-9.015625h7.5l23.332032 20.96875 24.191406-20.96875zm0 0" fill="#00efd1"/><path d="m213.1875 0h.3125c15.121094 0 27.378906 12.257812 27.378906 27.378906v11.320313c0 15.121093-12.257812 27.378906-27.378906 27.378906h-.3125c-15.121094 0-27.378906-12.257813-27.378906-27.378906v-11.320313c0-15.121094 12.257812-27.378906 27.378906-27.378906zm0 0" fill="#00acea"/><g fill="#00efd1"><path d="m239.71875 389.371094v4.828125c.003906 14.105469-11.425781 25.539062-25.53125 25.539062h-1.597656c-14.105469 0-25.542969-11.433593-25.542969-25.539062v-4.828125c0-14.105469 11.4375-25.542969 25.542969-25.542969h1.597656c14.105469.003906 25.535156 11.4375 25.53125 25.542969zm0 0"/><path d="m225.007812 94.691406 7.550782 70.367188-18.25 18.261718-18.25-18.25 7.601562-70.789062 10.21875-11.429688zm0 0"/><path d="m89.046875 431.191406c7.738281 0 15.113281 3.273438 20.300781 9.015625 5.1875 5.738281 7.699219 13.40625 6.921875 21.101563v24.722656l-116.109375.007812v-24.730468c-.777344-7.695313 1.738282-15.363282 6.925782-21.105469 5.191406-5.738281 12.566406-9.011719 20.300781-9.011719h7.492187l23.339844 20.96875 24.179688-20.96875zm0 0"/><path d="m56.5 363.828125h1.589844c14.105468 0 25.539062 11.4375 25.539062 25.542969v4.828125c0 14.105469-11.433594 25.539062-25.539062 25.539062h-1.589844c-14.105469 0-25.542969-11.433593-25.542969-25.539062v-4.828125c0-14.105469 11.4375-25.542969 25.542969-25.542969zm0 0"/></g><path d="m368.386719 317.019531h-308.117188c-1.582031-.015625-3.101562.605469-4.21875 1.71875-1.121093 1.113281-1.75 2.632813-1.742187 4.210938v22.421875c0 3.3125 2.6875 6 6 6s6-2.6875 6-6v-16.351563h142v12.949219c0 3.316406 2.6875 6 6 6s6-2.683594 6-6v-12.949219h142v16.351563c0 3.3125 2.6875 6 6 6s6-2.6875 6-6v-22.421875c.015625-1.574219-.601563-3.089844-1.714844-4.207031-1.113281-1.113282-2.628906-1.734376-4.207031-1.722657zm0 0" fill="#fedb41"/></svg>