<svg height="493pt" viewBox="-14 0 493 493" width="493pt" xmlns="http://www.w3.org/2000/svg"><path d="m90.609375 297.519531c22.367187 22.480469 52.679687 35.257813 84.390625 35.570313.460938.019531.929688.019531 1.398438.019531 66.496093-.015625 120.570312-53.597656 121.191406-120.089844.011718-.371093.011718-.738281.011718-1.109375 0-6.914062-.585937-13.816406-1.75-20.628906 3.976563 1.046875 7.789063 2.1875 11.648438 3.398438l42.5-47.660157v66.160157c28 16.179687 50.078125 37.839843 61.960938 62.671874l53.039062 5.707032v75.492187l-53.820312 6.339844c-12.351563 25.089844-35.179688 46.878906-64.179688 62.96875v66.640625h-56v-45.078125c-42.734375 10.171875-87.265625 10.171875-130 0v45.078125h-56v-66.640625c-45.671875-24.820313-73.839844-63.210937-74.238281-106.359375-.011719-.320312-.011719-.628906-.011719-.949219 0-26.289062 10.941406-50.839843 29.449219-71.671875l.261719-.078125c5.785156 18.957031 16.136718 36.203125 30.148437 50.21875zm0 0" fill="#00acea"/><path d="m295.851562 191.28125c1.164063 6.8125 1.75 13.714844 1.75 20.628906 0 .371094 0 .738282-.011718 1.109375l-1.589844-.019531h-29.480469c.011719-.359375.011719-.730469.011719-1.089844.03125-23.957031-9.503906-46.9375-26.492188-63.832031l21.582032-21.578125.378906-.390625c17.765625 17.6875 29.597656 40.464844 33.851562 65.171875zm0 0" fill="#f4b844"/><path d="m296 213 1.589844.019531c-.242188 32.027344-13.203125 62.644531-36.03125 85.109375l-.367188-.378906-21.589844-21.589844c16.984376-16.65625 26.664063-39.371094 26.917969-63.160156zm0 0" fill="#fedb41"/><path d="m240.039062 148.078125c16.988282 16.894531 26.523438 39.875 26.492188 63.832031 0 .359375 0 .730469-.011719 1.089844-.601562 49.34375-40.769531 89.035156-90.121093 89.039062-.457032 0-.929688 0-1.386719-.019531-48.816407-.738281-88.167969-40.222656-88.742188-89.039062-.007812-.359375-.007812-.710938-.007812-1.070313.007812-49.230468 39.511719-89.351562 88.738281-90.121094.46875-.019531.929688-.019531 1.398438-.019531 23.867187-.03125 46.765624 9.433594 63.640624 26.308594zm0 0" fill="#00efd1"/><path d="m262 126.109375-.378906.390625-21.582032 21.578125c-16.875-16.875-39.773437-26.339844-63.640624-26.308594-.46875 0-.929688 0-1.398438.019531v-29.789062l-.019531-1.269531c.46875-.019531.949219-.019531 1.417969-.019531 32.105468-.039063 62.902343 12.699218 85.601562 35.398437zm0 0" fill="#fedb41"/><path d="m261.191406 297.75.367188.378906c-22.652344 22.445313-53.265625 35.019532-85.160156 34.980469-.46875 0-.9375 0-1.398438-.019531v-30.089844l.011719-.980469c.457031.019531.929687.019531 1.386719.019531 23.652343.03125 46.363281-9.265624 63.203124-25.878906zm0 0" fill="#f4b844"/><path d="m175.011719 302.019531-.011719.980469v30.089844c-31.710938-.3125-62.023438-13.089844-84.390625-35.570313l21.5-21.5.46875-.460937c16.554687 16.640625 38.964844 26.140625 62.433594 26.460937zm0 0" fill="#fedb41"/><path d="m175 92v29.789062c-23.679688.332032-46.265625 10.003907-62.851562 26.910157l-.476563-.46875-21.492187-21.492188c22.394531-22.742187 52.882812-35.6875 84.800781-36.007812zm0 0" fill="#f4b844"/><path d="m112.578125 275.558594-.46875.460937-21.5 21.5c-22.4375-22.433593-35.152344-52.792969-35.398437-84.519531h29.789062l1.269531-.019531c.246094 23.5 9.691407 45.964843 26.308594 62.578125zm0 0" fill="#f4b844"/><path d="m111.671875 148.230469.476563.46875c-16.617188 16.835937-25.921876 39.554687-25.886719 63.210937 0 .359375 0 .710938.007812 1.070313l-1.269531.019531h-29.789062c-.011719-.359375-.011719-.730469-.011719-1.089844-.046875-31.894531 12.527343-62.515625 34.980469-85.171875zm0 0" fill="#fedb41"/><path d="m194 235.480469c-10.640625 4.125-22.722656.65625-29.558594-8.480469h22.558594c3.3125 0 6-2.6875 6-6s-2.6875-6-6-6h-27.449219c-.175781-1.324219-.25-2.664062-.214843-4h31.664062c3.3125 0 6-2.6875 6-6s-2.6875-6-6-6h-28.300781c6.25-10.933594 19.550781-15.664062 31.300781-11.132812 3.09375 1.191406 6.566406-.347657 7.757812-3.441407 1.1875-3.09375-.351562-6.566406-3.445312-7.757812-9.421875-3.632813-19.910156-3.308594-29.09375.894531-9.179688 4.203125-16.277344 11.933594-19.6875 21.4375h-5.53125c-3.3125 0-6 2.6875-6 6s2.6875 6 6 6h3.332031c-.023437 1.335938.027344 2.671875.152344 4h-3.484375c-3.3125 0-6 2.6875-6 6s2.6875 6 6 6h6.585938c8.15625 18.195312 29.117187 26.839844 47.730468 19.679688 3.09375-1.191407 4.632813-4.664063 3.441406-7.757813-1.191406-3.09375-4.664062-4.632813-7.757812-3.441406zm0 0" fill="#00acea"/><g fill="#fedb41"><path d="m175 71c-3.3125 0-6-2.6875-6-6v-59c0-3.3125 2.6875-6 6-6s6 2.6875 6 6v59c0 3.3125-2.6875 6-6 6zm0 0"/><path d="m214 71c-3.3125 0-6-2.6875-6-6v-40c0-3.3125 2.6875-6 6-6s6 2.6875 6 6v40c0 3.3125-2.6875 6-6 6zm0 0"/><path d="m137 71c-3.3125 0-6-2.6875-6-6v-40c0-3.3125 2.6875-6 6-6s6 2.6875 6 6v40c0 3.3125-2.6875 6-6 6zm0 0"/><path d="m242 81c-3.3125 0-6-2.6875-6-6v-31c0-3.3125 2.6875-6 6-6s6 2.6875 6 6v31c0 3.3125-2.6875 6-6 6zm0 0"/><path d="m108 81c-3.3125 0-6-2.6875-6-6v-31c0-3.3125 2.6875-6 6-6s6 2.6875 6 6v31c0 3.3125-2.6875 6-6 6zm0 0"/></g><path d="m31 326h-25c-3.3125 0-6-2.6875-6-6s2.6875-6 6-6h25c3.3125 0 6 2.6875 6 6s-2.6875 6-6 6zm0 0" fill="#00efd1"/><path d="m363.960938 288.121094c0 10.761718-8.726563 19.488281-19.492188 19.488281-10.761719 0-19.488281-8.726563-19.488281-19.488281 0-10.765625 8.726562-19.492188 19.488281-19.492188 10.765625 0 19.492188 8.726563 19.492188 19.492188zm0 0" fill="#00efd1"/></svg>