<?xml version="1.0" encoding="utf-8"?>
<!-- Generator: Adobe Illustrator 16.0.0, SVG Export Plug-In . SVG Version: 6.00 Build 0)  -->
<svg version="1.2" baseProfile="tiny" id="Layer_1" xmlns="http://www.w3.org/2000/svg" xmlns:xlink="http://www.w3.org/1999/xlink"
	 x="0px" y="0px" width="512px" height="512px" viewBox="0 0 3000 3000" xml:space="preserve">
<g>
	<g>
		<path fill="#21CE99" d="M289.446,1701.527l-5.056,2.075c-30.138,10.043-75.315,25.082-114.581,44.174
			c-2.056,0.993-3.993,3.983-3.993,3.983c-1.072,1.987-2.134,4.063-2.99,6.069c-4.2,10.042-11.046,25.141-13.111,32.124
			l-1.918,5.125c0,1.013,0,1.928,0,1.928l0.855,1.063h1.063l4.849-1.987c11.252-5.134,25.22-13.121,39.394-20.104h0.924
			c28.151-13.102,59.361-28.21,77.39-37.19c0,0,2.99-1.986,5.056-4.986l14.046-28.22c0-1.004,0-1.987,0-1.987
			C291.374,1701.527,290.302,1700.612,289.446,1701.527"/>
		<path fill="#21CE99" d="M176.862,1657.354c2.075-4.053,10.977-21.147,13.111-25.151v-0.993
			c61.269-115.563,135.738-224.134,220.947-323.665l2.135-3.029c1.082-1.023,1.082-2.026,0-3.001
			c-1.063-1.022-2.135-2.046-2.99-1.022h-3.993c-56.43,8.085-113.646,18.128-169.869,32.174c-6.128,2.026-9.108,5.056-10.18,5.98
			c-42.187,50.302-81.443,103.554-118.711,157.889c1.22,3,1.22,9.049,1.22,9.049s8.911,70.338,22.092,122.626
			c-32.213,95.488-62.351,222.099-62.351,222.099c0,1.072,0,2.075,0,2.075c0,0.993,1.072,0.993,1.918,0.993h19.092
			c1.003,0,2.065-0.993,3.138-1.986l0.846-4.063c19.092-52.239,41.331-104.538,65.341-154.84
			C164.754,1681.363,176.862,1657.354,176.862,1657.354"/>
		<path fill="#21CE99" d="M440.223,1328.672v-4.023c0-1.022-1.082-2.075-1.938-3c-1.063,0-2.145,0-3.138,0.925l-1.987,3.039
			c-100.682,115.594-183.973,244.249-250.17,381.983l-2.135,2.98c0,1.014,0,2.007,0,3.069c0.846,0.935,0.846,0.935,2.135,0.935
			h0.846l3-0.935c56.213-23.154,113.646-43.239,170.862-60.345c2.99-1.003,6.128-3,8.056-5.98
			c25.22-48.245,83.361-142.761,83.361-142.761c2.144-3.039,1.219-6.049,1.219-6.049S440.223,1385.907,440.223,1328.672"/>
		<path fill="#21CE99" d="M568.898,1165.815c-13.967-12.107-35.341-18.138-67.406-19.092c-28.004-1.032-62.352,6.02-101.538,18.06
			c-5.99,2.075-10.043,5.065-15.099,9.02c-40.121,37.229-78.246,77.459-114.511,117.679l-3.128,3c-0.924,1.022-0.924,1.986,0,3.02
			c0.994,1.013,2.056,1.977,3.128,1.013l3.994-1.013c59.43-13.072,118.563-22.121,176.921-28.2c3.993,0,8.046,1.023,10.968,3.02
			c3.216,3.069,4.063,6.099,4.063,10.053c-0.837,58.357,1.081,116.636,6,172.918v4.023c0,0.983,1.219,2.006,2.055,2.006
			c0,0,0,0,1.082,0c1.063,0,1.918,0,1.918-1.022l2.066-3c33.117-47.203,68.331-92.488,106.524-135.64
			c3.974-5.056,5.056-8.085,6.118-12.147C603.964,1236.104,585.935,1179.892,568.898,1165.815"/>
		<path fill="#21CE99" d="M990.078,1459.452c-19.102-19.053-38.901-25.151-64.623-25.151c-31.219,0-60.786,13.712-75.452,36.118
			v-32.853H810.59v269.243h39.403v-165.236c0-41.075,25.003-72.246,64.407-72.246c20.803,0,31.858,4.898,46.603,19.691
			L990.078,1459.452"/>
		<path fill="#21CE99" d="M1162.16,1572.213c0,30.078-1.721,63.413-21.314,83.163c-12.6,12.591-30.138,19.722-49.377,19.722
			c-19.082,0-36.118-7.131-48.521-19.722c-19.819-19.75-21.875-53.085-21.875-83.163c0-30.128,2.056-63.482,21.875-83.194
			c12.394-12.619,29.43-19.691,48.521-19.691c19.239,0,36.777,7.072,49.377,19.691
			C1160.439,1508.73,1162.16,1542.075,1162.16,1572.213 M1201.564,1572.213c0-41.607-5.42-79.388-32.922-107.272
			c-18.531-18.6-44.262-30.64-77.174-30.64c-32.773,0-58.495,12.05-77.095,30.64c-27.286,27.885-32.695,65.655-32.695,107.272
			c0,41.616,5.41,79.308,32.695,107.232c18.6,18.6,44.321,30.64,77.095,30.64c32.922,0,58.643-12.05,77.174-30.64
			C1196.135,1651.511,1201.564,1613.819,1201.564,1572.213"/>
		<path fill="#21CE99" d="M1433.764,1572.213c0,52.515-8.764,102.885-67.249,102.885c-58.427,0-67.908-50.37-67.908-102.885
			c0-52.545,9.481-102.886,67.908-102.886C1425,1469.327,1433.764,1519.668,1433.764,1572.213 M1473.167,1572.213
			c0-42.178-5.409-87.04-32.704-114.325c-14.184-14.223-38.41-23.587-65.705-23.587c-29.567,0-54.285,6.551-76.171,34.446v-151.485
			h-39.403v389.548h39.403v-32.272c21.886,28.437,46.604,35.558,76.171,35.558c27.295,0,51.521-9.335,65.705-23.577
			C1467.768,1659.213,1473.167,1614.311,1473.167,1572.213"/>
		<path fill="#21CE99" d="M1573.014,1360.983v-44.292h-44.105v44.292H1573.014 M1570.357,1706.8v-269.233h-39.403v269.243h39.403
			V1706.8z"/>
		<path fill="#21CE99" d="M1854.738,1706.8v-172.357c0-31.2-8.784-56.391-28.023-74.99c-16.456-16.427-39.896-25.151-68.971-25.151
			c-29.921,0-56.223,10.928-75.462,32.813v-29.548h-39.394v269.243h39.394v-165.816c0-47.056,26.232-71.666,66.698-71.666
			c40.613,0,66.344,24.039,66.344,71.666V1706.8H1854.738"/>
		<path fill="#21CE99" d="M2135.616,1706.8v-172.938c0-60.737-36.059-99.57-96.846-99.57c-30.069,0-55.868,10.446-75.452,32.813
			v-149.843h-39.414v389.548h39.414v-166.377c0-46.506,26.783-71.105,67.269-71.105c40.396,0,65.616,24.039,65.616,71.105V1706.8
			H2135.616"/>
		<path fill="#21CE99" d="M2371.318,1572.213c0,30.078-1.712,63.413-21.374,83.163c-12.758,12.591-30.295,19.722-49.387,19.722
			c-19.103,0-36.05-7.131-48.669-19.722c-19.801-19.75-21.865-53.085-21.865-83.163c0-30.128,2.064-63.482,21.865-83.194
			c12.619-12.619,29.566-19.691,48.669-19.691c19.082,0,36.629,7.072,49.387,19.691
			C2369.606,1508.73,2371.318,1542.075,2371.318,1572.213 M2410.731,1572.213c0-41.607-5.558-79.388-32.922-107.272
			c-18.747-18.6-44.331-30.64-77.252-30.64c-32.695,0-58.485,12.05-77.164,30.64c-27.157,27.885-32.784,65.655-32.784,107.272
			c0,41.616,5.627,79.308,32.784,107.232c18.669,18.6,44.469,30.64,77.164,30.64c32.921,0,58.495-12.05,77.252-30.64
			C2405.164,1651.511,2410.731,1613.819,2410.731,1572.213"/>
		<path fill="#21CE99" d="M2634.669,1572.213c0,30.078-1.563,63.413-21.305,83.163c-12.473,12.591-30.01,19.722-49.229,19.722
			c-19.239,0-36.069-7.131-48.669-19.722c-19.594-19.75-21.896-53.085-21.896-83.163c0-30.128,2.292-63.482,21.896-83.194
			c12.6-12.619,29.43-19.691,48.669-19.691c19.22,0,36.757,7.072,49.229,19.691
			C2633.105,1508.73,2634.669,1542.075,2634.669,1572.213 M2674.063,1572.213c0-41.607-5.41-79.388-32.902-107.272
			c-18.402-18.6-44.104-30.64-77.025-30.64c-32.784,0-58.643,12.05-77.026,30.64c-27.512,27.885-32.921,65.655-32.921,107.272
			c0,41.616,5.409,79.308,32.921,107.232c18.384,18.6,44.242,30.64,77.026,30.64c32.921,0,58.623-12.05,77.025-30.64
			C2668.652,1651.511,2674.063,1613.819,2674.063,1572.213"/>
		<path fill="#21CE99" d="M2892.324,1572.213c0,52.515-8.764,102.885-67.475,102.885c-58.643,0-67.761-50.37-67.761-102.885
			c0-52.545,9.118-102.886,67.761-102.886C2883.561,1469.327,2892.324,1519.668,2892.324,1572.213 M2931.728,1706.8v-389.538
			h-39.403v151.485c-21.954-27.896-46.604-34.446-76.17-34.446c-27.354,0-51.512,9.364-65.705,23.587
			c-27.354,27.285-32.764,72.147-32.764,114.325c0,42.098,5.409,87,32.764,114.295c14.184,14.242,38.341,23.577,65.705,23.577
			c29.566,0,54.787-7.132,76.672-35.558v32.272H2931.728L2931.728,1706.8z"/>
	</g>
</g>
</svg>
